<?xml version="1.0" encoding="UTF-8"?>
<svg id="Calque_1" data-name="Calque 1" xmlns="http://www.w3.org/2000/svg" viewBox="0 0 841.89 595.28">
  <defs>
    <style>
      .cls-1 {
        fill: #e75813;
      }

      .cls-2 {
        fill: #360b35;
      }
    </style>
  </defs>
  <path class="cls-1" d="M149.7,346.57c1.82,2.49,3.8,4.92,5.89,7.28M155.59,353.85c11.79,13.3,27.32,24.39,40.16,32.32,8.84,5.46,18.07,10.21,27.4,14.76h3.23c9.33-4.55,18.56-9.3,27.4-14.76,23.56-14.55,56.18-39.72,58.14-69.74v-91.61c-.04-2.12-1.06-3.74-2.64-5.03-27.84-9.08-56.13-17.28-84.32-25.44-28.35,7.94-56.73,16.4-84.72,25.44-1.58,1.29-2.6,2.91-2.64,5.03v91.61c.7,10.76,5.34,20.89,12.09,30.14M224.27,206.97c23.68,7.21,48.35,13.31,71.8,21.19,1.34.45,3.86.7,3.75,2.3v28.06c-.83-1.05-1.66-1.63-3.12-1.78-2.49-.24-6.81.12-9.42.31-7.91.57-21.63,2.59-28.68,6.03-1.92.94-2.57,2.09-2.36,4.26-3.28-1.09-6.5-2.38-9.69-3.68-10.74-4.4-19.12-10.09-30.69-3.32-.71.41-3.92,2.88-4.17,2.88h-24.85c.31-3.09,1.09-4.4-1.73-6.36-5.52-3.84-23.23-6.05-30.19-6.28-2.17-.07-4.2-.11-5.06,1.68l.06-22.81,74.36-22.49ZM234.51,308.63c.31.61,3.84,4.17,4.66,5.05,4.26,4.54,8.94,8.73,13.26,13.22.93,1.42-1.58,2.9-2.72,3.19-3.39.88-4.55-.66-6.87-2.73-4.61-4.13-8.54-9.16-13.07-13.4-2.74-2.08-6.26,1.02-4.68,4.09.22.43,2.36,2.69,2.9,3.28,3.8,4.17,8.21,7.84,11.98,12.05-.74,2.27-3.73,4.34-6.06,3.21-.97-.47-3.61-3.03-4.6-3.94-3.69-3.38-8.35-9.8-12.05-12.36-2.65-1.83-6.05.62-4.82,3.65.33.8,2.73,3.32,3.49,4.15,3.18,3.46,6.8,6.55,10.01,9.99-1.64.44-3.29.04-4.86-.43-4.72-1.41-13.23-8.68-17.46-11.95-5.19-4.02-11.13-8.48-15.92-12.91-3.56-3.3-6.54-7.2-10.15-10.45l8.09-32.93h19.12c-5.34,5.37-14.39,20.48-3.47,24.79,5.84,2.3,12.04.89,16.56-3.31.73-.68,1.89-2.49,2.51-2.79.7-.33,2.06-.45,3-.82.68-.27,3.37-1.65,3.77-1.56,2.81,2.38,5.52,4.87,8.36,7.21,5.12,4.22,26.31,20.21,27.42,25.51.63,3-1.83,6.1-4.86,4.86-.6-.25-6.39-6.02-7.4-7.01-3.24-3.2-8.05-9.31-11.49-11.75-2.88-2.04-6.24,1.07-4.68,4.09ZM169.18,307.05h-13.53v-49.56l.66-.38c8.16,1.02,16.7,1.43,24.36,4.54-2.42,15.47-7.09,30.44-11.49,45.4ZM256.24,301.61c-7.55-6.69-15.86-12.77-23.54-19.4-1.35-1.17-2.62-3.27-4.56-3.4-2.11-.15-4.89,1.87-6.91,2.51-1.33.42-2.9.39-4.08.92-1.3.59-1.64,1.85-2.53,2.77-2.81,2.9-4.74,4.45-9.08,3.78-4.34-.67-3.38-2.97-2.01-6.33,2.55-6.26,12.92-16.68,19.52-18.42,6.89-1.81,13.5,2.47,19.65,4.93,5.63,2.25,11.26,4.51,16.96,6.57.48.17.65.47.9.87,1.06,1.71,2.41,6.1,3.23,8.24,2.95,7.66,5.52,15.48,8.25,23.22,0,.68-5.52,4.41-5.82,4.2-2.65-3.86-6.49-7.32-10.01-10.44ZM263.88,267.94c9.66-3.12,19.84-4.51,30-4.71v50h-13.53c-4.71-15.36-10.19-30.51-16.47-45.29ZM268.11,361.38c-13.18,10.49-28.18,19.05-43.18,26.63-9.13-4.25-18.23-9.3-26.76-14.75-20.39-13.05-47.09-33.91-48.46-60.05v-2.14c.25.85.72,1.59,1.55,2l21,.15c2.07-.33,2.21-2.57,2.96-4.1,6.72,7.32,14.29,13.55,22.07,19.69,7.73,6.1,19.8,17.35,30.15,15.76,1.57-.24,3.98-1.79,4.58-1.86.49-.05,1.3.47,2.02.52,5.14.39,9.12-2.32,11.6-6.62,5.12.86,10.89-1.71,13-6.57,5.07.07,10.16-3.94,10.81-9.05.14-1.11-.17-2.26.18-3.35l4.15-2.91c.82-.12.95,1.9,1.23,2.53.54,1.24,1.46,2.27,2.88,2.41,6-.48,13.25.74,19.1.03.97-.12,1.65-.6,2.26-1.2-3.06,17.68-17.65,32.15-31.12,42.88Z"/>
  <g>
    <path class="cls-2" d="M237.97,235.99c0,7.25-5.88,13.13-13.13,13.13s-13.13-5.88-13.13-13.13,5.88-13.13,13.13-13.13,13.13,5.88,13.13,13.13ZM236.14,235.99c0-6.24-5.06-11.3-11.3-11.3s-11.3,5.06-11.3,11.3,5.06,11.3,11.3,11.3,11.3-5.06,11.3-11.3Z"/>
    <path class="cls-2" d="M229.91,231.65c.91-.17,1.42.61,1,1.4l-7.15,7.16c-.46.34-.84.21-1.25-.11-1.27-1.01-2.43-2.64-3.71-3.7-.77-.94.33-2.08,1.28-1.33l3.13,3.08,6.23-6.22c.13-.12.29-.24.47-.27Z"/>
  </g>
  <g>
    <path class="cls-1" d="M382.57,272.13v54.22c0,12.02-9.78,21.66-21.66,21.66h-21.66v-97.54h21.66c11.88,0,21.66,9.78,21.66,21.66ZM371.53,272.13c0-5.87-4.75-10.62-10.62-10.62h-10.76v75.6h10.76c5.87,0,10.62-4.89,10.62-10.76v-54.22Z"/>
    <path class="cls-1" d="M403.96,322.58v4.75c0,6.29,4.47,11.18,10.48,11.18s10.48-4.89,10.48-11.18v-2.66h10.2v2.66c0,12.02-9.08,21.38-20.68,21.38s-20.68-9.36-20.68-21.38v-34.1c0-11.74,9.64-21.38,21.38-21.38s21.38,9.64,21.38,21.38v2.66c0,6.29-3.49,12.02-9.08,14.81l-23.48,11.88ZM403.96,311.12l18.87-9.5c2.1-1.12,3.49-3.35,3.49-5.73v-2.66c0-6.15-5.03-11.18-11.18-11.18s-11.18,5.03-11.18,11.18v17.89Z"/>
    <path class="cls-1" d="M487.53,293.37v34.66c0,11.74-9.5,21.24-21.24,21.24s-21.24-9.5-21.24-21.24v-8.52c0-11.74,9.5-21.24,21.24-21.24,4.75,0,8.38,1.54,11.04,4.19v-9.08c0-6.15-4.89-11.04-11.04-11.04-6.57,0-9.5,5.73-9.5,11.04v2.79h-10.34v-2.79c0-12.16,8.52-21.38,19.84-21.38s21.24,9.64,21.24,21.38ZM477.33,319.51c0-6.01-4.89-11.04-11.04-11.04s-11.04,5.03-11.04,11.04v8.52c0,6.01,5.03,11.04,11.04,11.04s11.04-5.03,11.04-11.04v-8.52Z"/>
    <path class="cls-1" d="M499.41,348.02v-102.02h10.2v102.02h-10.2Z"/>
    <path class="cls-2" d="M563.69,313.36v13.69c0,11.88-9.78,21.66-21.66,21.66s-21.66-9.78-21.66-21.66v-9.5h10.9v9.5c0,5.87,4.89,10.62,10.76,10.62s10.62-4.75,10.62-10.62v-13.69c0-6.01-4.19-8.8-13.28-13.28-7.83-3.77-17.61-8.66-17.61-20.12v-8.52c0-12.3,8.8-21.66,20.26-21.66s20.12,9.36,20.12,21.66v9.5h-10.9v-9.5c0-7.27-4.75-10.62-9.22-10.62s-9.22,3.35-9.22,10.62v8.52c0,4.19,3.49,6.43,11.46,10.34,8.25,4.05,19.42,9.5,19.42,23.06Z"/>
    <path class="cls-2" d="M616.8,272.69v54.78c0,11.74-9.5,21.24-21.24,21.24s-21.24-9.5-21.24-21.24v-54.78h10.2v54.78c0,6.15,5.03,11.04,11.04,11.04s11.04-4.89,11.04-11.04v-54.78h10.2Z"/>
    <path class="cls-2" d="M655.51,271.99v10.2h-5.59c-6.01,0-11.04,4.89-11.04,11.04v54.78h-10.2v-54.78c0-11.74,9.5-21.24,21.24-21.24h5.59Z"/>
    <path class="cls-2" d="M671.72,322.58v4.75c0,6.29,4.47,11.18,10.48,11.18s10.48-4.89,10.48-11.18v-2.66h10.2v2.66c0,12.02-9.08,21.38-20.68,21.38s-20.68-9.36-20.68-21.38v-34.1c0-11.74,9.64-21.38,21.38-21.38s21.38,9.64,21.38,21.38v2.66c0,6.29-3.49,12.02-9.08,14.81l-23.48,11.88ZM671.72,311.12l18.87-9.5c2.1-1.12,3.49-3.35,3.49-5.73v-2.66c0-6.15-5.03-11.18-11.18-11.18s-11.18,5.03-11.18,11.18v17.89Z"/>
  </g>
</svg>